<svg xmlns="http://www.w3.org/2000/svg" viewBox="0 0 512 512" width="512" height="512">
  <defs>
    <linearGradient id="shieldGradient" x1="0%" y1="0%" x2="100%" y2="100%">
      <stop offset="0%" stop-color="#7B2D8E"/>
      <stop offset="100%" stop-color="#E86A33"/>
    </linearGradient>
  </defs>
  
  <!-- Shield -->
  <path 
    d="M256 48
       L440 112
       L440 256
       C440 368 344 448 256 480
       C168 448 72 368 72 256
       L72 112
       Z"
    fill="url(#shieldGradient)"
  />
  
  <!-- Claw - simplified lobster/crab claw shape -->
  <g fill="#FFFFFF">
    <!-- Arm segment -->
    <path d="M200 340
             C175 320 165 280 175 240
             C185 200 215 175 255 175
             L265 200
             C235 200 215 220 210 250
             C205 280 215 310 230 325
             Z"/>
    
    <!-- Upper pincer -->
    <path d="M255 175
             C295 165 335 180 365 215
             C385 245 380 280 355 305
             L330 280
             C345 260 340 235 320 215
             C300 195 275 190 255 200
             Z"/>
    
    <!-- Lower pincer -->
    <path d="M265 200
             C275 195 290 200 305 220
             C320 240 320 265 305 285
             C290 305 265 310 245 295
             L260 270
             C270 275 280 270 285 260
             C290 250 285 240 275 230
             L265 200
             Z"/>
  </g>
</svg>
